<svg width="33" height="45" viewBox="0 0 160 207" fill="none" xmlns="http://www.w3.org/2000/svg">
    <path d="M94.7344 0.1875C95.5736 0.211992 96.4127 0.236485 97.2773 0.261719C99.5469 0.5 99.5 0.5 102.5 1.5C102.953 2 103.5 2.5 104 3C104.5 3.5 104.703 3.8125 105 4C108.037 5.77181 108.736 7.45964 110.547 10.5C111.091 14.7417 110.5 17.5 109.5 21.5C109 22 108.5 22.5 108 23C107.5 23.5 107.098 23.9154 106.867 24.6445C105.273 28.0921 103.031 30.4967 100.422 33.1875C96.264 37.5951 92.3767 42.1025 88.6367 46.875C86.1887 49.9499 83.6574 52.9454 81.1094 55.9375C77.7148 59.9268 74.3531 63.9367 71.0469 68C67.7766 72.0164 64.4595 75.9879 61.1094 79.9375C60.6446 80.4877 60.1798 81.0379 59.7009 81.6047C57.5012 84.2068 55.2897 86.7941 53.0469 89.3594C47.9978 95.2176 43.4912 101.277 39.1719 107.688C38.4218 108.792 38.4218 108.792 37.6565 109.919C34.7836 114.265 32.4442 118.616 30.4255 123.42C29.5106 125.586 28.5061 127.695 27.4844 129.812C23.6415 138.668 22.2812 147.025 22.2344 156.625C22.2262 157.888 22.4355 156.354 22.2178 159.177C22 162 22.5 163.5 24.5469 167.5C24.9875 168.819 25.3767 170.156 25.7344 171.5C29.2354 182.317 36.0451 188.644 45.9102 193.715C61.5138 201.084 79.1359 197.879 94.7578 192.367C105.409 188.233 114.355 181.869 123.22 174.788C125.672 172.846 127.55 171.499 130.547 170.5C130.796 169.066 131.021 167.627 131.234 166.188C131.362 165.387 131.49 164.586 131.621 163.762C131.72 161.474 131.72 161.474 130.504 159.645C128.071 158.222 126.323 158.223 123.581 158.756C119.266 160.334 115.808 163.371 112.234 166.188C96.9261 178.052 82.5758 185.766 62.5469 183.5C55.3565 181.636 48.7189 178.358 44.1719 172.375C41.7644 169.568 42 171 41 169C40.5 168.5 40.5 168 40 167.5C35.7321 152.064 40.7017 137.297 48.1094 123.688C58.7985 105.425 72.5621 89.3685 86.3418 73.408C90.1903 68.9456 93.9212 64.4009 97.6094 59.8047C98.2487 59.0441 98.8881 58.2836 99.5469 57.5C100.049 56.8027 100.551 56.1054 101.069 55.387C104.869 52.4933 108.48 52.9459 113.133 53.0039C114.067 53.0025 115.002 53.001 115.965 52.9995C117.94 53.0012 119.915 53.0127 121.891 53.0334C124.904 53.0623 127.916 53.0541 130.93 53.041C132.852 53.0473 134.773 53.0556 136.695 53.0664C138.041 53.062 138.041 53.062 139.414 53.0575C145.958 53.1555 151.153 54.5313 155.922 59.3125C159.576 63.8127 159.26 68.6732 159 74.25C158.212 79.9029 155.573 82.6827 151.484 86.3125C146.945 89.6931 143.946 89.5637 138.422 89.3945C136.223 89.3705 134.024 89.357 131.826 89.3435C130.32 89.323 128.815 89.283 127.311 89.2224C117.632 88.7491 117.632 88.7491 109.264 92.957C106.355 95.9011 103.96 99.1435 101.547 102.5C100.351 103.97 99.1511 105.437 97.9453 106.898C96.9299 108.218 95.9219 109.544 94.9219 110.875C94.3826 111.588 93.8434 112.3 93.2878 113.034C83.8079 125.408 83.761 125.408 77.5 139.5C77 140 77 140 76.5 140.5C76 141 76 141 75.5 142C75.2396 142.958 74.7683 143.513 74.5 144.5C74.228 145.508 73.6279 146.579 73.3477 147.617C72.7352 149.822 72.0608 152.009 71.3594 154.188C70.0593 159.488 69.8678 163.721 71.8594 168.938C73.3516 171.778 73.3516 171.778 76.5469 172.5C86.7849 173.383 94.0809 168.5 102.109 162.625C103.164 161.869 103.164 161.869 104.24 161.098C108.489 158.041 112.666 154.903 116.801 151.695C120.69 149.034 125.002 148.906 129.547 149.5C134.785 151.382 138.652 154.763 141.547 159.5C142.565 163.803 142.573 167.577 140.461 171.535C125.899 189.534 100.209 203.346 77.5469 206.5C71.5399 206.964 65.5575 206.8 59.5469 206.5C58.6278 206.468 57.7087 206.436 56.7617 206.402C45.0128 205.594 33.366 198.677 25.3867 190.207C21.5469 185.223 22.2178 185.568 20.7644 183.5C20.1044 183.5 20.2269 182.5 19.5469 182.5C18.7246 180.17 17.914 177.836 17.1094 175.5C16.8793 174.852 16.6492 174.203 16.4121 173.535C11.4579 159.031 12.1659 140.409 18.5469 126.5C18.9474 125.607 18.9474 125.607 19.356 124.695C26.1788 109.653 35.1945 96.6815 46.0181 84.2778C48.902 80.9241 51.6848 77.4867 54.4844 74.0625C59.3691 68.1051 64.3262 62.2195 69.3591 56.387C73.0449 52.1084 76.6249 47.7522 80.1836 43.3672C83.5254 39.3128 86.9516 35.3328 90.3867 31.3574C92.5738 28.8224 94.7136 26.2868 96.7773 23.6484C98.5469 21.5 98.5469 21.5 100.547 20.5C100.64 18.5819 100.64 18.5819 100.734 16.625C100.769 15.9057 100.804 15.1864 100.84 14.4453C100.743 13.8034 100.646 13.1614 100.547 12.5C97.5312 10.4896 95.4974 9.65141 91.8555 9.73828C86.4189 11.5321 82.9843 17.1743 79.5469 21.5C78.5433 22.7375 78.5433 22.7375 77.5195 24C76.2303 25.603 74.9492 27.2125 73.6758 28.8281C69.8292 33.6558 65.8637 38.3779 61.8149 43.0371C60.7186 44.3019 59.6372 45.5795 58.5586 46.8594C51.3569 54.8168 39.5524 60.8476 28.8555 61.8438C26.2721 61.948 23.6888 62.0522 21.1055 62.1562C17.7964 62.4759 15.4926 63.0054 12.5469 64.5C9.93453 67.8587 10.1144 71.3911 10.5469 75.5C11.7259 78.391 11.7259 78.391 14.5469 80.5C18.4147 81.2257 22.2454 81.1995 26.1719 81.1875C28.2683 81.204 30.3647 81.2284 32.4609 81.2617C33.8524 81.2611 33.8524 81.2611 35.272 81.2605C37.5469 81.5 37.5469 81.5 39.5469 83.5C39.7344 86.0625 39.7344 86.0625 39.5469 88.5C37.1021 90.9448 30.7638 89.7339 27.4844 89.75C26.4589 89.7706 25.4335 89.7912 24.3769 89.8125C17.256 89.8489 11.4211 89.3229 5.48828 85C1.35212 80.5006 0.293364 77.7471 0.394528 71.6211C0.807664 65.869 2.47522 61.5717 6.54687 57.5C11.9994 53.778 15.726 53.0221 22.2344 53.0625C34.2166 52.7421 43.8492 48.9142 52.5469 40.5C56.3721 36.2906 59.9822 31.9306 63.5469 27.5C68.328 21.5802 73.1413 15.7169 78.2344 10.0625C79.5396 8.61037 79.5396 8.61037 80.8711 7.12891C85.1137 2.96066 88.5974 -0.0884253 94.7344 0.1875Z" fill="#69EBD6"/>
</svg>